<mxfile host="65bd71144e">
    <diagram id="rdZ__2JckaXxYIee4m1p" name="PÃ¡gina-1">
        <mxGraphModel dx="1128" dy="466" grid="1" gridSize="10" guides="1" tooltips="1" connect="1" arrows="1" fold="1" page="1" pageScale="1" pageWidth="827" pageHeight="1169" math="0" shadow="0">
            <root>
                <mxCell id="0"/>
                <mxCell id="1" parent="0"/>
                <mxCell id="8" style="edgeStyle=none;html=1;exitX=1;exitY=0.75;exitDx=0;exitDy=0;entryX=0;entryY=0.75;entryDx=0;entryDy=0;" parent="1" source="2" target="6" edge="1">
                    <mxGeometry relative="1" as="geometry"/>
                </mxCell>
                <mxCell id="11" style="edgeStyle=none;html=1;exitX=0.75;exitY=1;exitDx=0;exitDy=0;entryX=0.069;entryY=0.018;entryDx=0;entryDy=0;entryPerimeter=0;" parent="1" source="2" target="9" edge="1">
                    <mxGeometry relative="1" as="geometry">
                        <mxPoint x="440" y="290" as="targetPoint"/>
                    </mxGeometry>
                </mxCell>
                <mxCell id="14" style="edgeStyle=none;html=1;exitX=0.5;exitY=1;exitDx=0;exitDy=0;entryX=0.554;entryY=-0.002;entryDx=0;entryDy=0;entryPerimeter=0;" parent="1" source="2" target="12" edge="1">
                    <mxGeometry relative="1" as="geometry"/>
                </mxCell>
                <mxCell id="2" value="" style="rounded=1;whiteSpace=wrap;html=1;strokeWidth=4;strokeColor=#3333FF;" parent="1" vertex="1">
                    <mxGeometry x="190" y="30" width="224" height="140" as="geometry"/>
                </mxCell>
                <mxCell id="5" value="Server&lt;br&gt;API" style="text;html=1;strokeColor=none;fillColor=none;align=center;verticalAlign=middle;whiteSpace=wrap;rounded=0;" parent="1" vertex="1">
                    <mxGeometry x="272" y="85" width="60" height="30" as="geometry"/>
                </mxCell>
                <mxCell id="7" style="edgeStyle=none;html=1;exitX=0;exitY=0.25;exitDx=0;exitDy=0;entryX=1;entryY=0.25;entryDx=0;entryDy=0;" parent="1" source="6" target="2" edge="1">
                    <mxGeometry relative="1" as="geometry"/>
                </mxCell>
                <mxCell id="6" value="Web Client" style="rounded=1;whiteSpace=wrap;html=1;strokeColor=#00FFFF;strokeWidth=4;" parent="1" vertex="1">
                    <mxGeometry x="510" y="30" width="180" height="150" as="geometry"/>
                </mxCell>
                <mxCell id="10" style="edgeStyle=none;html=1;exitX=0.25;exitY=0;exitDx=0;exitDy=0;entryX=0.918;entryY=0.996;entryDx=0;entryDy=0;entryPerimeter=0;" parent="1" source="9" target="2" edge="1">
                    <mxGeometry relative="1" as="geometry"/>
                </mxCell>
                <mxCell id="9" value="Desktop" style="rounded=1;whiteSpace=wrap;html=1;strokeColor=#00FFFF;strokeWidth=4;" parent="1" vertex="1">
                    <mxGeometry x="430" y="290" width="180" height="150" as="geometry"/>
                </mxCell>
                <mxCell id="13" style="edgeStyle=none;html=1;exitX=0.25;exitY=0;exitDx=0;exitDy=0;" parent="1" source="12" target="2" edge="1">
                    <mxGeometry relative="1" as="geometry"/>
                </mxCell>
                <mxCell id="12" value="Mobile Client" style="rounded=1;whiteSpace=wrap;html=1;strokeColor=#00FFFF;strokeWidth=4;" parent="1" vertex="1">
                    <mxGeometry x="120" y="300" width="180" height="150" as="geometry"/>
                </mxCell>
                <mxCell id="18" value="RES" style="edgeStyle=none;html=1;exitX=1;exitY=0.75;exitDx=0;exitDy=0;entryX=0;entryY=0.75;entryDx=0;entryDy=0;" parent="1" source="15" target="16" edge="1">
                    <mxGeometry relative="1" as="geometry"/>
                </mxCell>
                <mxCell id="24" style="edgeStyle=none;html=1;exitX=0.5;exitY=1;exitDx=0;exitDy=0;entryX=0.5;entryY=0;entryDx=0;entryDy=0;fontSize=21;" parent="1" source="15" target="21" edge="1">
                    <mxGeometry relative="1" as="geometry"/>
                </mxCell>
                <mxCell id="15" value="Server" style="rounded=1;whiteSpace=wrap;html=1;strokeWidth=5;strokeColor=#CC0000;" parent="1" vertex="1">
                    <mxGeometry x="270" y="760" width="220" height="110" as="geometry"/>
                </mxCell>
                <mxCell id="17" value="REQ" style="edgeStyle=none;html=1;exitX=0;exitY=0.25;exitDx=0;exitDy=0;entryX=1;entryY=0.25;entryDx=0;entryDy=0;" parent="1" source="16" target="15" edge="1">
                    <mxGeometry relative="1" as="geometry">
                        <mxPoint as="offset"/>
                    </mxGeometry>
                </mxCell>
                <mxCell id="16" value="Client" style="rounded=1;whiteSpace=wrap;html=1;strokeColor=#00FF00;strokeWidth=5;" parent="1" vertex="1">
                    <mxGeometry x="750" y="760" width="220" height="110" as="geometry"/>
                </mxCell>
                <mxCell id="19" value="&lt;ul style=&quot;font-size: 21px&quot;&gt;&lt;li&gt;GET&lt;/li&gt;&lt;li&gt;POST&lt;/li&gt;&lt;li&gt;PUT&lt;/li&gt;&lt;li&gt;PATCH&lt;br&gt;&lt;/li&gt;&lt;li&gt;DELETE&lt;/li&gt;&lt;/ul&gt;" style="text;strokeColor=none;fillColor=none;html=1;whiteSpace=wrap;verticalAlign=middle;overflow=hidden;strokeWidth=6;" parent="1" vertex="1">
                    <mxGeometry x="560" y="830" width="140" height="210" as="geometry"/>
                </mxCell>
                <mxCell id="22" style="edgeStyle=none;html=1;exitX=0.25;exitY=0;exitDx=0;exitDy=0;fontSize=21;entryX=0.25;entryY=1;entryDx=0;entryDy=0;" parent="1" source="21" target="15" edge="1">
                    <mxGeometry relative="1" as="geometry">
                        <mxPoint x="320" y="880" as="targetPoint"/>
                    </mxGeometry>
                </mxCell>
                <mxCell id="21" value="Server 2" style="rounded=1;whiteSpace=wrap;html=1;strokeWidth=5;strokeColor=#CC0000;" parent="1" vertex="1">
                    <mxGeometry x="270" y="1020" width="220" height="110" as="geometry"/>
                </mxCell>
                <mxCell id="25" value="Middleware" style="rounded=1;whiteSpace=wrap;html=1;strokeWidth=3;strokeColor=#FFFF33;" parent="1" vertex="1">
                    <mxGeometry x="250" y="950" width="240" height="50" as="geometry"/>
                </mxCell>
                <mxCell id="30" value="RES" style="edgeStyle=none;html=1;exitX=0.25;exitY=1;exitDx=0;exitDy=0;entryX=0.25;entryY=0;entryDx=0;entryDy=0;" parent="1" source="27" target="28" edge="1">
                    <mxGeometry x="0.2" relative="1" as="geometry">
                        <mxPoint as="offset"/>
                    </mxGeometry>
                </mxCell>
                <mxCell id="27" value="Server" style="rounded=1;whiteSpace=wrap;html=1;strokeWidth=5;strokeColor=#CC0000;" parent="1" vertex="1">
                    <mxGeometry x="1280" y="760" width="220" height="110" as="geometry"/>
                </mxCell>
                <mxCell id="31" value="REQ" style="edgeStyle=none;html=1;exitX=0.75;exitY=0;exitDx=0;exitDy=0;entryX=0.75;entryY=1;entryDx=0;entryDy=0;" parent="1" source="28" target="27" edge="1">
                    <mxGeometry x="-0.2" relative="1" as="geometry">
                        <mxPoint as="offset"/>
                    </mxGeometry>
                </mxCell>
                <mxCell id="28" value="Client&lt;br&gt;google.com" style="rounded=1;whiteSpace=wrap;html=1;strokeWidth=5;strokeColor=#99FF99;" parent="1" vertex="1">
                    <mxGeometry x="1280" y="1020" width="220" height="110" as="geometry"/>
                </mxCell>
                <mxCell id="29" value="CORS:&lt;br&gt;*google.com/*" style="rounded=1;whiteSpace=wrap;html=1;strokeWidth=3;strokeColor=#FFFF33;" parent="1" vertex="1">
                    <mxGeometry x="1270" y="890" width="240" height="50" as="geometry"/>
                </mxCell>
            </root>
        </mxGraphModel>
    </diagram>
</mxfile>